<?xml version="1.0" encoding="utf-8"?>
<!-- Generator: Adobe Illustrator 23.1.1, SVG Export Plug-In . SVG Version: 6.00 Build 0)  -->
<svg version="1.1" id="Capa_1" xmlns="http://www.w3.org/2000/svg" xmlns:xlink="http://www.w3.org/1999/xlink" x="0px" y="0px"
	 viewBox="0 0 350 105" style="enable-background:new 0 0 350 105;" xml:space="preserve">
<style type="text/css">
	.st0{fill:#393939;}
</style>
<g>
	<path class="st0" d="M24.9,19.6h7.2v1.5h-5.5v2.5h4.8v1.5h-4.8v2.6h5.5v1.5h-7.2V19.6z"/>
	<path class="st0" d="M33.5,27.9l1-1.2c0.9,0.8,1.9,1.3,3,1.3c1,0,1.7-0.5,1.7-1.2v0c0-0.7-0.4-1.1-2.2-1.5
		c-2.1-0.5-3.2-1.1-3.2-2.9v0c0-1.7,1.4-2.8,3.3-2.8c1.4,0,2.5,0.4,3.5,1.2L39.8,22c-0.9-0.6-1.7-1-2.6-1c-1,0-1.6,0.5-1.6,1.1v0
		c0,0.7,0.4,1.1,2.3,1.5c2,0.5,3.1,1.2,3.1,2.8v0c0,1.8-1.4,2.9-3.4,2.9C36.1,29.4,34.7,28.9,33.5,27.9z"/>
	<path class="st0" d="M45.2,21.2h-3.1v-1.6H50v1.6h-3.1v8.1h-1.7V21.2z"/>
	<path class="st0" d="M51.8,19.6h4.3c1.2,0,2.2,0.4,2.8,1c0.5,0.5,0.8,1.2,0.8,2.1v0c0,1.6-1,2.5-2.3,2.9l2.6,3.7h-2l-2.4-3.4h-2.1
		v3.4h-1.7V19.6z M55.9,24.4c1.2,0,2-0.6,2-1.6v0c0-1-0.7-1.6-2-1.6h-2.5v3.2H55.9z"/>
	<path class="st0" d="M61.7,19.6h7.2v1.5h-5.5v2.5h4.8v1.5h-4.8v2.6H69v1.5h-7.2V19.6z"/>
	<path class="st0" d="M71,19.6h1.6l5.2,6.7v-6.7h1.7v9.7H78l-5.3-6.9v6.9H71V19.6z"/>
	<path class="st0" d="M81.5,24.5L81.5,24.5c0-2.7,2.1-5,5.1-5c3,0,5,2.2,5,5v0c0,2.7-2.1,5-5.1,5S81.5,27.2,81.5,24.5z M89.8,24.5
		L89.8,24.5c0-1.9-1.4-3.5-3.3-3.5s-3.3,1.5-3.3,3.4v0c0,1.9,1.4,3.4,3.3,3.4C88.4,27.9,89.8,26.4,89.8,24.5z"/>
	<path class="st0" d="M97.7,19.6h7.2v1.5h-5.5v2.5h4.8v1.5h-4.8v2.6h5.5v1.5h-7.2V19.6z"/>
	<path class="st0" d="M115.2,19.6l-3.4,4.7l3.5,4.9h-2l-2.6-3.7l-2.5,3.7h-1.9l3.5-4.9l-3.4-4.7h2l2.4,3.5l2.4-3.5H115.2z"/>
	<path class="st0" d="M115.9,24.5L115.9,24.5c0-2.8,2.1-5,5-5c1.8,0,2.9,0.6,3.8,1.5l-1.1,1.3c-0.8-0.7-1.6-1.2-2.7-1.2
		c-1.8,0-3.2,1.5-3.2,3.4v0c0,1.9,1.3,3.4,3.2,3.4c1.2,0,1.9-0.5,2.8-1.2l1.1,1.1c-1,1-2.1,1.7-3.9,1.7
		C118,29.5,115.9,27.3,115.9,24.5z"/>
	<path class="st0" d="M126.5,19.6h1.7v8.1h5.1v1.5h-6.8V19.6z"/>
	<path class="st0" d="M134.7,25.2v-5.6h1.7v5.5c0,1.8,0.9,2.7,2.4,2.7c1.5,0,2.4-0.9,2.4-2.7v-5.6h1.7v5.5c0,2.9-1.6,4.3-4.2,4.3
		C136.3,29.5,134.7,28,134.7,25.2z"/>
	<path class="st0" d="M144.6,27.9l1-1.2c0.9,0.8,1.9,1.3,3,1.3c1,0,1.7-0.5,1.7-1.2v0c0-0.7-0.4-1.1-2.2-1.5
		c-2.1-0.5-3.2-1.1-3.2-2.9v0c0-1.7,1.4-2.8,3.3-2.8c1.4,0,2.5,0.4,3.5,1.2l-0.9,1.3c-0.9-0.6-1.7-1-2.6-1c-1,0-1.6,0.5-1.6,1.1v0
		c0,0.7,0.4,1.1,2.3,1.5c2,0.5,3.1,1.2,3.1,2.8v0c0,1.8-1.4,2.9-3.4,2.9C147.2,29.4,145.8,28.9,144.6,27.9z"/>
	<path class="st0" d="M154.2,19.6h1.7v9.7h-1.7V19.6z"/>
	<path class="st0" d="M157.6,19.6h1.9l2.9,7.4l2.9-7.4h1.8l-4,9.7h-1.5L157.6,19.6z"/>
	<path class="st0" d="M167.8,24.5L167.8,24.5c0-2.7,2.1-5,5.1-5c3,0,5,2.2,5,5v0c0,2.7-2.1,5-5.1,5S167.8,27.2,167.8,24.5z
		 M176.1,24.5L176.1,24.5c0-1.9-1.4-3.5-3.3-3.5s-3.3,1.5-3.3,3.4v0c0,1.9,1.4,3.4,3.3,3.4C174.8,27.9,176.1,26.4,176.1,24.5z"/>
	<path class="st0" d="M29.7,57.8c-2.7,0-4.5-1.2-5.7-2.6l2.4-2.7c1,1.1,2,1.7,3.2,1.7c1.4,0,2.3-0.9,2.3-2.9V40.2h3.9v11.4
		C35.9,55.8,33.4,57.8,29.7,57.8z"/>
	<path class="st0" d="M47,57.8c-4.7,0-7.5-2.6-7.5-7.7v-9.9h3.8V50c0,2.8,1.4,4.3,3.7,4.3c2.3,0,3.7-1.4,3.7-4.2v-9.9h3.8V50
		C54.6,55.2,51.7,57.8,47,57.8z"/>
	<path class="st0" d="M58.5,57.5V40.2h13.1v3.4h-9.3v3.5h8.2v3.4h-8.2v3.6h9.4v3.4H58.5z"/>
	<path class="st0" d="M84,57.7h-3.4l-7-17.5h4.2l4.5,12.2l4.5-12.2H91L84,57.7z"/>
	<path class="st0" d="M93.7,57.5V40.2h13.1v3.4h-9.3v3.5h8.2v3.4h-8.2v3.6h9.4v3.4H93.7z"/>
	<path class="st0" d="M116.5,57.8c-2.6,0-5.3-0.9-7.4-2.8l2.3-2.7c1.6,1.3,3.2,2.1,5.2,2.1c1.6,0,2.5-0.6,2.5-1.6v0
		c0-1-0.6-1.5-3.5-2.2c-3.5-0.9-5.8-1.9-5.8-5.3v0c0-3.1,2.5-5.2,6.1-5.2c2.5,0,4.7,0.8,6.4,2.2l-2,2.9c-1.5-1.1-3-1.7-4.5-1.7
		s-2.2,0.7-2.2,1.5v0c0,1.1,0.7,1.5,3.7,2.3c3.5,0.9,5.5,2.2,5.5,5.2v0C122.9,55.9,120.3,57.8,116.5,57.8z"/>
	<path class="st0" d="M137.1,40.1h2.6v17.5H136V43.9l-3,0.7l-0.8-3.1L137.1,40.1z"/>
	<path class="st0" d="M144.7,40.2h10.7v3.3H148l-0.2,3c0.7-0.2,1.3-0.3,2.3-0.3c3.4,0,6.1,1.6,6.1,5.6c0,3.7-2.6,6-6.6,6
		c-2.8,0-4.8-1-6.5-2.6l2.3-2.8c1.3,1.2,2.6,1.9,4.1,1.9c1.8,0,2.9-0.9,2.9-2.4c0-1.5-1.2-2.4-3.1-2.4c-1.1,0-2.1,0.3-2.9,0.6
		l-2.2-1.5L144.7,40.2z"/>
	<path class="st0" d="M175.6,57.8c-5.4,0-9.2-4-9.2-8.9v0c0-4.9,3.9-9,9.2-9c5.4,0,9.2,4,9.2,8.9v0
		C184.8,53.8,180.9,57.8,175.6,57.8z M180.8,48.9c0-3-2.2-5.5-5.3-5.5c-3.1,0-5.2,2.4-5.2,5.4v0c0,3,2.2,5.5,5.3,5.5
		C178.7,54.3,180.8,51.9,180.8,48.9L180.8,48.9z"/>
	<path class="st0" d="M196.4,57.8c-5.1,0-8.9-3.9-8.9-8.9v0c0-4.9,3.7-9,9-9c3.3,0,5.2,1.1,6.8,2.7l-2.4,2.8c-1.3-1.2-2.7-2-4.4-2
		c-2.9,0-5,2.4-5,5.4v0c0,3,2.1,5.5,5,5.5c2,0,3.2-0.8,4.6-2l2.4,2.5C201.7,56.7,199.7,57.8,196.4,57.8z"/>
	<path class="st0" d="M214.4,43.7v13.8h-3.8V43.7h-5.3v-3.5h14.4v3.5H214.4z"/>
	<path class="st0" d="M229.8,57.8c-4.7,0-7.5-2.6-7.5-7.7v-9.9h3.8V50c0,2.8,1.4,4.3,3.7,4.3c2.3,0,3.7-1.4,3.7-4.2v-9.9h3.8V50
		C237.4,55.2,234.5,57.8,229.8,57.8z"/>
	<path class="st0" d="M249.6,57.5h-8.3V40.2h8.1c3.5,0,5.7,1.8,5.7,4.5v0c0,2-1,3-2.3,3.7c2,0.8,3.2,1.9,3.2,4.3v0
		C256.1,56,253.5,57.5,249.6,57.5z M251.3,45.3c0-1.1-0.9-1.8-2.5-1.8h-3.8v3.7h3.5C250.3,47.2,251.3,46.7,251.3,45.3L251.3,45.3z
		 M252.3,52.3c0-1.2-0.9-1.9-2.8-1.9h-4.4v3.8h4.5C251.3,54.2,252.3,53.6,252.3,52.3L252.3,52.3z"/>
	<path class="st0" d="M269.8,57.5l-3.7-5.6h-3v5.6h-3.8V40.2h7.9c4.1,0,6.5,2.2,6.5,5.7v0c0,2.8-1.5,4.6-3.7,5.4l4.2,6.2H269.8z
		 M269.8,46.1c0-1.6-1.1-2.5-3-2.5h-3.8v5h3.9C268.8,48.6,269.8,47.6,269.8,46.1L269.8,46.1z"/>
	<path class="st0" d="M277.2,57.5V40.2h13.1v3.4H281v3.5h8.2v3.4H281v3.6h9.4v3.4H277.2z"/>
	<path class="st0" d="M27.8,72.4l-2.7-2.2c1.7-2.3,3.4-3.6,6.5-3.6c3.7,0,6,2.1,6,5.4c0,2.9-1.5,4.4-4.6,6.7L30.2,81h7.6v3.3H24.9
		v-3l5.8-4.7c2.2-1.8,3-2.7,3-4.2c0-1.5-1-2.3-2.3-2.3C30,70.1,29.1,70.8,27.8,72.4z"/>
	<path class="st0" d="M43.3,72.4l-2.7-2.2c1.7-2.3,3.4-3.6,6.5-3.6c3.7,0,6,2.1,6,5.4c0,2.9-1.5,4.4-4.6,6.7L45.6,81h7.6v3.3H40.4
		v-3l5.8-4.7c2.2-1.8,3-2.7,3-4.2c0-1.5-1-2.3-2.3-2.3C45.5,70.1,44.6,70.8,43.3,72.4z"/>
	<path class="st0" d="M56.3,74.9v-4h4v4H56.3z M56.3,84.3v-4h4v4H56.3z"/>
	<path class="st0" d="M71,84.6c-4.6,0-7.7-3.9-7.7-9c0-5.1,3.1-9,7.7-9s7.7,3.9,7.7,9S75.6,84.6,71,84.6z M71,70.1
		c-2.3,0-3.8,2.3-3.8,5.5s1.5,5.6,3.8,5.6s3.8-2.3,3.8-5.5S73.3,70.1,71,70.1z"/>
	<path class="st0" d="M82.8,66.9h10.7v3.3H86l-0.2,3c0.7-0.2,1.3-0.3,2.3-0.3c3.4,0,6.1,1.6,6.1,5.6c0,3.7-2.6,6-6.6,6
		c-2.8,0-4.8-1-6.5-2.6l2.3-2.8c1.3,1.2,2.6,1.9,4.1,1.9c1.8,0,2.9-0.9,2.9-2.4c0-1.5-1.2-2.4-3.1-2.4c-1.1,0-2.1,0.3-2.9,0.6
		l-2.2-1.5L82.8,66.9z"/>
</g>
<g>
</g>
<g>
</g>
<g>
</g>
<g>
</g>
<g>
</g>
<g>
</g>
</svg>
